<?xml version="1.0" encoding="UTF-8"?>
<!DOCTYPE svg PUBLIC "-//W3C//DTD SVG 1.1//EN" "http://www.w3.org/Graphics/SVG/1.1/DTD/svg11.dtd">
<!-- Creator: CorelDRAW Home & Student X8 -->
<svg xmlns="http://www.w3.org/2000/svg" xml:space="preserve" width="210mm" height="297mm" version="1.1" style="shape-rendering:geometricPrecision; text-rendering:geometricPrecision; image-rendering:optimizeQuality; fill-rule:evenodd; clip-rule:evenodd"
viewBox="0 0 21000 29700"
 xmlns:xlink="http://www.w3.org/1999/xlink">
 <defs>
  <style type="text/css">
   <![CDATA[
    .str0 {stroke:#2B2A29;stroke-width:25}
    .str1 {stroke:#2B2A29;stroke-width:20}
    .fil2 {fill:none}
    .fil0 {fill:#FEFEFE}
    .fil1 {fill:#2B2A29;fill-rule:nonzero}
   ]]>
  </style>
 </defs>
 <g id="Layer_x0020_1">
  <metadata id="CorelCorpID_0Corel-Layer"/>
  <rect class="fil0 str0" x="2507" y="761" width="16040" height="12030"/>
  <path class="fil1" d="M8107 7422l-161 0 0 -1025c-39,37 -90,74 -152,111 -63,37 -120,65 -170,83l0 -155c90,-42 169,-94 236,-154 67,-60 115,-118 143,-175l104 0 0 1315z"/>
  <path id="1" class="fil1" d="M8521 6776c0,-155 15,-280 47,-374 32,-95 79,-168 142,-219 63,-51 142,-76 237,-76 70,0 131,14 185,42 53,29 97,70 131,123 34,53 61,118 80,194 20,77 30,180 30,310 0,154 -16,278 -47,372 -32,95 -79,168 -142,219 -62,52 -142,77 -237,77 -126,0 -225,-45 -297,-135 -86,-109 -129,-287 -129,-533zm164 1c0,215 25,358 75,429 51,71 113,106 187,106 74,0 136,-35 186,-106 50,-72 75,-215 75,-429 0,-216 -25,-359 -75,-430 -50,-71 -113,-106 -188,-106 -74,0 -133,31 -177,93 -55,80 -83,228 -83,443z"/>
  <polygon id="2" class="fil1" points="10103,7422 10103,6113 10276,6113 10276,7269 10920,7269 10920,7422 "/>
  <polygon id="3" class="fil1" points="11131,7422 11131,6113 12077,6113 12077,6266 11305,6266 11305,6669 12027,6669 12027,6822 11305,6822 11305,7269 12108,7269 12108,7422 "/>
  <path id="4" class="fil1" d="M12347 7422l0 -1309 451 0c102,0 180,6 234,18 75,18 139,49 192,94 69,59 120,133 155,224 34,91 51,195 51,311 0,100 -12,188 -35,265 -23,76 -53,140 -89,190 -37,51 -76,90 -119,119 -43,29 -96,51 -157,66 -61,15 -131,22 -210,22l-473 0zm174 -153l279 0c87,0 154,-8 203,-25 49,-16 88,-38 118,-68 41,-41 73,-96 95,-166 23,-69 35,-153 35,-252 0,-138 -23,-243 -68,-317 -44,-74 -99,-123 -163,-148 -47,-18 -121,-27 -224,-27l-275 0 0 1003z"/>
  <circle class="fil2 str1" cx="3510" cy="12062" r="600"/>
  <circle class="fil2 str1" cx="6517" cy="12062" r="600"/>
  <circle class="fil2 str1" cx="10527" cy="12062" r="600"/>
  <circle class="fil2 str1" cx="14537" cy="12062" r="600"/>
  <circle class="fil2 str1" cx="17538" cy="12062" r="600"/>
  <circle class="fil2 str1" cx="3510" cy="1489" r="600"/>
  <circle class="fil2 str1" cx="6517" cy="1489" r="600"/>
  <circle class="fil2 str1" cx="10527" cy="1489" r="600"/>
  <circle class="fil2 str1" cx="14537" cy="1489" r="600"/>
  <circle class="fil2 str1" cx="17538" cy="1489" r="600"/>
  <path class="fil1" d="M14700 12435l-142 0 0 -537c-52,48 -113,84 -184,108l0 -130c37,-12 78,-35 121,-69 44,-34 73,-73 90,-119l115 0 0 747z"/>
  <path class="fil1" d="M17375 12428l-126 0 0 -537c-46,49 -100,85 -162,108l0 -130c33,-12 68,-35 107,-69 38,-34 65,-73 79,-118l102 0 0 746z"/>
  <path id="1" class="fil1" d="M17776 11682c63,0 113,25 149,77 42,61 64,162 64,303 0,141 -22,242 -65,304 -35,50 -85,76 -148,76 -64,0 -115,-28 -155,-84 -39,-55 -58,-155 -58,-297 0,-141 21,-242 64,-303 36,-51 85,-76 149,-76zm0 118c-15,0 -29,5 -40,17 -12,10 -21,30 -28,59 -8,36 -12,99 -12,186 0,87 3,147 11,180 8,33 17,55 29,65 12,11 25,17 40,17 15,0 28,-6 40,-17 12,-11 21,-31 27,-59 9,-37 13,-99 13,-186 0,-87 -4,-147 -11,-180 -8,-33 -18,-55 -29,-65 -12,-12 -25,-17 -40,-17z"/>
  <path class="fil1" d="M10776 12303l0 132 -498 0c5,-50 21,-97 48,-142 27,-45 81,-104 160,-178 64,-60 103,-101 118,-122 19,-30 29,-59 29,-87 0,-32 -8,-57 -25,-74 -17,-17 -41,-25 -71,-25 -29,0 -53,9 -70,27 -18,17 -28,47 -31,89l-142 -14c9,-79 35,-135 80,-169 44,-34 100,-52 167,-52 73,0 131,20 173,60 42,40 62,89 62,148 0,33 -6,65 -18,95 -11,31 -30,62 -57,96 -17,22 -48,53 -93,95 -45,41 -74,68 -85,82 -13,13 -22,27 -30,39l283 0z"/>
  <path class="fil1" d="M6271 12232l138 -17c4,35 16,62 35,81 19,18 42,28 69,28 30,0 54,-12 74,-34 20,-22 30,-52 30,-90 0,-36 -9,-65 -29,-85 -19,-21 -42,-32 -70,-32 -18,0 -39,4 -65,11l16 -116c38,1 68,-7 88,-25 20,-18 30,-41 30,-71 0,-25 -7,-45 -22,-60 -15,-15 -35,-22 -59,-22 -25,0 -46,8 -63,25 -17,17 -27,42 -31,75l-131 -23c9,-45 23,-81 41,-108 19,-27 45,-49 77,-64 33,-15 70,-23 111,-23 70,0 126,22 168,67 35,36 52,78 52,124 0,65 -35,118 -107,157 43,9 77,29 102,61 26,32 38,70 38,115 0,65 -23,121 -71,167 -48,46 -107,69 -177,69 -68,0 -123,-20 -167,-58 -45,-39 -70,-90 -77,-152z"/>
  <path class="fil1" d="M3546 12435l0 -150 -303 0 0 -124 321 -472 120 0 0 472 92 0 0 124 -92 0 0 150 -138 0zm0 -274l0 -254 -170 254 170 0z"/>
  <path class="fil1" d="M3260 1659l142 -15c4,32 16,58 36,76 20,19 43,29 69,29 30,0 55,-12 75,-37 21,-24 31,-61 31,-110 0,-46 -10,-80 -30,-103 -21,-23 -47,-34 -80,-34 -41,0 -78,18 -110,53l-116 -16 73 -386 376 0 0 133 -268 0 -22 126c31,-16 64,-24 97,-24 63,0 117,23 161,70 44,46 66,105 66,179 0,61 -18,116 -54,164 -48,66 -115,99 -201,99 -68,0 -124,-19 -168,-56 -43,-37 -69,-86 -77,-148z"/>
  <path class="fil1" d="M6751 1295l-137 16c-4,-29 -13,-50 -27,-63 -14,-14 -32,-20 -55,-20 -30,0 -55,13 -76,40 -21,27 -34,83 -39,169 35,-42 79,-63 132,-63 59,0 110,22 153,68 42,45 63,104 63,175 0,76 -22,138 -67,184 -45,45 -102,68 -172,68 -74,0 -136,-29 -184,-87 -49,-59 -73,-154 -73,-287 0,-137 26,-235 76,-295 50,-61 115,-91 196,-91 56,0 103,16 140,48 37,32 60,78 70,138zm-322 311c0,46 11,82 32,107 21,26 45,38 73,38 26,0 48,-10 66,-31 17,-20 26,-54 26,-101 0,-49 -10,-84 -28,-107 -19,-22 -43,-33 -71,-33 -28,0 -51,10 -70,32 -19,21 -28,53 -28,95z"/>
  <path class="fil1" d="M10283 1255l0 -132 488 0 0 104c-41,39 -81,96 -123,170 -41,74 -73,152 -95,236 -22,83 -33,157 -32,223l-137 0c2,-103 23,-208 63,-315 40,-107 94,-202 161,-286l-325 0z"/>
  <path class="fil1" d="M14417 1455c-37,-16 -63,-37 -80,-65 -17,-27 -25,-57 -25,-89 0,-55 19,-101 58,-137 38,-36 93,-55 164,-55 71,0 126,19 164,55 39,36 59,82 59,137 0,34 -9,65 -27,92 -18,27 -43,47 -76,62 42,16 73,40 95,72 21,32 32,69 32,110 0,69 -22,125 -66,168 -43,43 -101,64 -174,64 -67,0 -123,-17 -168,-53 -53,-42 -80,-99 -80,-173 0,-40 10,-77 30,-111 20,-33 51,-59 94,-77zm30 -144c0,29 8,51 24,67 16,16 37,24 63,24 27,0 49,-8 65,-24 16,-16 24,-39 24,-67 0,-27 -8,-48 -24,-64 -16,-16 -37,-25 -63,-25 -27,0 -49,9 -65,25 -16,16 -24,38 -24,64zm-14 319c0,39 10,70 30,92 20,22 45,33 75,33 30,0 54,-10 73,-32 19,-21 29,-52 29,-92 0,-35 -10,-63 -30,-84 -19,-21 -44,-32 -74,-32 -34,0 -60,12 -77,36 -17,24 -26,50 -26,79z"/>
  <path class="fil1" d="M17306 1684l138 -16c3,28 12,49 26,63 14,14 32,20 55,20 30,0 54,-13 75,-41 20,-27 33,-83 39,-168 -36,41 -81,62 -134,62 -59,0 -109,-22 -151,-68 -43,-45 -64,-103 -64,-176 0,-75 22,-136 67,-182 45,-46 102,-69 171,-69 75,0 137,30 185,88 49,58 73,154 73,288 0,136 -25,234 -75,294 -51,60 -116,90 -196,90 -58,0 -105,-15 -141,-46 -35,-31 -58,-78 -68,-139zm320 -312c0,-46 -10,-81 -32,-107 -20,-25 -45,-37 -72,-37 -27,0 -49,10 -66,31 -17,20 -26,54 -26,101 0,48 10,83 28,106 19,22 43,33 71,33 27,0 50,-10 69,-32 19,-22 28,-53 28,-95z"/>
  <rect class="fil0 str0" x="2366" y="13955" width="16040" height="12030"/>
  <path class="fil1" d="M7966 20616l-161 0 0 -1025c-39,37 -90,74 -153,111 -62,37 -119,65 -169,83l0 -155c90,-42 169,-94 236,-154 67,-60 115,-118 143,-175l104 0 0 1315z"/>
  <path id="1" class="fil1" d="M9223 20462l0 154 -867 0c-2,-39 5,-76 19,-112 22,-59 58,-117 107,-174 49,-57 119,-123 210,-197 142,-117 238,-210 288,-278 51,-68 76,-133 76,-194 0,-63 -23,-117 -68,-161 -46,-44 -106,-65 -179,-65 -78,0 -140,23 -187,69 -47,46 -70,110 -71,192l-164 -16c11,-124 54,-217 128,-282 74,-65 173,-97 297,-97 126,0 226,35 299,105 73,69 110,156 110,259 0,52 -11,104 -32,155 -22,50 -57,104 -107,160 -50,56 -133,133 -248,230 -97,81 -159,136 -186,165 -28,29 -50,58 -68,87l643 0z"/>
  <polygon id="2" class="fil1" points="9962,20616 9962,19306 10135,19306 10135,20462 10779,20462 10779,20616 "/>
  <polygon id="3" class="fil1" points="10990,20616 10990,19306 11935,19306 11935,19460 11164,19460 11164,19863 11886,19863 11886,20016 11164,20016 11164,20462 11967,20462 11967,20616 "/>
  <path id="4" class="fil1" d="M12206 20616l0 -1310 451 0c102,0 180,7 234,19 75,17 139,49 192,94 69,58 120,133 154,224 35,91 52,195 52,311 0,100 -12,188 -35,265 -23,76 -53,140 -89,190 -37,51 -76,90 -120,119 -43,29 -95,51 -156,66 -61,15 -131,22 -210,22l-473 0zm174 -154l279 0c86,0 154,-7 203,-24 49,-16 88,-38 118,-68 40,-41 72,-96 95,-166 23,-69 35,-153 35,-252 0,-138 -23,-243 -68,-317 -44,-74 -99,-123 -163,-148 -47,-18 -121,-27 -224,-27l-275 0 0 1002z"/>
  <circle class="fil2 str1" cx="3369" cy="25256" r="600"/>
  <circle class="fil2 str1" cx="6376" cy="25256" r="600"/>
  <circle class="fil2 str1" cx="10386" cy="25256" r="600"/>
  <circle class="fil2 str1" cx="14396" cy="25256" r="600"/>
  <circle class="fil2 str1" cx="17397" cy="25256" r="600"/>
  <circle class="fil2 str1" cx="3369" cy="14683" r="600"/>
  <circle class="fil2 str1" cx="6376" cy="14683" r="600"/>
  <circle class="fil2 str1" cx="10386" cy="14683" r="600"/>
  <circle class="fil2 str1" cx="14396" cy="14683" r="600"/>
  <circle class="fil2 str1" cx="17397" cy="14683" r="600"/>
  <path class="fil1" d="M14559 25629l-142 0 0 -537c-52,48 -113,84 -184,108l0 -130c37,-12 77,-35 121,-69 43,-34 73,-74 89,-119l116 0 0 747z"/>
  <path class="fil1" d="M17234 25622l-126 0 0 -537c-46,49 -100,85 -162,108l0 -130c33,-12 68,-35 107,-69 38,-34 64,-73 79,-118l102 0 0 746z"/>
  <path id="1" class="fil1" d="M17847 25491l0 131 -441 0c5,-50 19,-97 43,-142 24,-45 71,-104 141,-178 57,-60 92,-101 104,-122 18,-29 26,-58 26,-87 0,-32 -7,-56 -22,-74 -15,-17 -36,-25 -62,-25 -27,0 -47,9 -63,27 -15,18 -24,47 -27,89l-125 -14c7,-79 31,-135 70,-169 39,-34 89,-51 148,-51 64,0 115,20 152,59 37,40 56,89 56,148 0,33 -6,65 -16,96 -11,30 -27,61 -50,95 -16,22 -43,53 -83,95 -40,41 -65,68 -76,82 -10,13 -19,27 -25,40l250 0z"/>
  <path class="fil1" d="M10635 25497l0 132 -498 0c5,-50 21,-97 48,-142 27,-45 80,-104 160,-179 64,-59 103,-100 118,-121 19,-30 29,-59 29,-88 0,-31 -8,-56 -25,-73 -17,-17 -41,-25 -71,-25 -29,0 -53,9 -71,27 -17,17 -27,47 -30,89l-142 -14c9,-79 35,-135 80,-169 44,-35 100,-52 167,-52 73,0 131,20 173,60 41,39 62,89 62,148 0,33 -6,65 -18,95 -12,31 -31,62 -57,95 -17,23 -48,54 -93,95 -45,42 -74,69 -86,83 -12,13 -21,27 -29,39l283 0z"/>
  <path class="fil1" d="M6130 25425l138 -16c4,35 16,62 35,81 19,18 42,28 69,28 30,0 54,-12 74,-34 20,-22 30,-52 30,-90 0,-36 -9,-65 -29,-86 -19,-21 -42,-31 -70,-31 -18,0 -40,4 -65,11l16 -116c38,1 68,-7 88,-25 20,-18 30,-41 30,-71 0,-25 -7,-45 -22,-60 -15,-15 -35,-22 -60,-22 -24,0 -45,8 -62,25 -17,17 -27,42 -31,74l-131 -22c9,-45 23,-81 41,-108 19,-27 44,-49 77,-64 33,-16 70,-23 111,-23 70,0 126,22 168,67 35,36 52,78 52,124 0,65 -36,118 -107,157 43,9 77,29 102,61 25,32 38,70 38,115 0,65 -24,121 -71,167 -48,46 -107,69 -178,69 -67,0 -122,-20 -166,-58 -45,-39 -70,-90 -77,-153z"/>
  <path class="fil1" d="M3405 25628l0 -149 -303 0 0 -124 321 -472 120 0 0 472 92 0 0 124 -92 0 0 149 -138 0zm0 -273l0 -254 -170 254 170 0z"/>
  <path class="fil1" d="M3599 14482l-138 16c-3,-29 -12,-50 -26,-63 -15,-14 -33,-20 -56,-20 -30,0 -55,13 -76,40 -20,27 -33,83 -39,169 36,-42 80,-63 132,-63 60,0 111,23 153,68 42,45 63,104 63,175 0,77 -22,138 -67,184 -44,46 -101,69 -171,69 -75,0 -137,-30 -185,-88 -48,-58 -72,-154 -72,-287 0,-136 25,-235 75,-295 50,-60 116,-90 196,-90 56,0 103,15 140,47 37,32 61,78 71,138zm-323 311c0,47 11,82 32,108 22,25 46,37 73,37 26,0 48,-10 66,-31 18,-20 26,-54 26,-101 0,-49 -9,-84 -28,-107 -19,-22 -43,-33 -71,-33 -27,0 -50,10 -69,32 -19,21 -29,53 -29,95z"/>
  <path class="fil1" d="M6128 14448l0 -131 488 0 0 103c-41,40 -82,97 -123,171 -42,74 -73,152 -95,236 -22,83 -33,157 -32,223l-137 0c2,-103 23,-208 63,-315 40,-107 93,-202 160,-287l-324 0z"/>
  <path class="fil1" d="M10265 14648c-37,-15 -63,-36 -80,-64 -17,-27 -25,-57 -25,-89 0,-56 19,-101 58,-137 38,-37 93,-55 164,-55 71,0 125,18 164,55 39,36 59,81 59,137 0,34 -9,65 -27,92 -18,27 -43,47 -76,61 42,17 73,41 94,73 22,32 33,69 33,110 0,69 -22,125 -66,168 -43,43 -102,64 -174,64 -68,0 -124,-17 -168,-53 -53,-42 -80,-100 -80,-173 0,-40 10,-77 30,-111 20,-33 51,-59 94,-78zm30 -143c0,29 8,51 24,67 16,16 37,24 63,24 27,0 49,-8 65,-25 16,-16 24,-38 24,-66 0,-27 -8,-48 -24,-65 -16,-16 -37,-24 -63,-24 -27,0 -49,8 -65,25 -16,16 -24,38 -24,64zm-14 319c0,39 10,70 30,92 20,22 45,33 75,33 29,0 54,-10 73,-32 19,-21 29,-52 29,-92 0,-35 -10,-63 -30,-84 -19,-22 -44,-32 -74,-32 -35,0 -60,12 -77,36 -17,24 -26,50 -26,79z"/>
  <path class="fil1" d="M14158 14877l138 -15c4,28 12,49 26,63 14,13 33,20 56,20 29,0 54,-13 74,-41 21,-27 34,-83 39,-168 -35,41 -80,62 -134,62 -58,0 -108,-23 -151,-68 -42,-45 -63,-103 -63,-176 0,-75 22,-136 67,-182 45,-46 102,-69 171,-69 75,0 137,29 185,88 48,58 73,154 73,288 0,136 -26,234 -76,294 -50,60 -115,90 -196,90 -58,0 -104,-15 -140,-46 -36,-31 -59,-78 -69,-140zm321 -311c0,-46 -11,-81 -32,-107 -21,-25 -45,-38 -73,-38 -26,0 -48,11 -65,32 -18,20 -26,54 -26,101 0,48 9,83 28,106 19,22 43,33 71,33 27,0 50,-11 69,-32 19,-22 28,-53 28,-95z"/>
  <path class="fil1" d="M17247 15050l-116 0 0 -538c-42,49 -92,85 -149,109l0 -130c30,-12 63,-35 98,-69 35,-34 60,-74 73,-119l94 0 0 747z"/>
  <path id="1" class="fil1" d="M17616 14303c58,0 104,26 137,78 39,60 59,161 59,302 0,141 -20,243 -59,304 -33,51 -79,76 -137,76 -59,0 -106,-27 -142,-83 -36,-56 -54,-155 -54,-298 0,-140 19,-241 59,-303 33,-50 78,-76 137,-76zm0 118c-14,0 -26,6 -37,17 -11,11 -19,31 -25,59 -8,37 -12,99 -12,186 0,88 3,148 11,181 7,32 15,54 26,65 11,11 23,16 37,16 14,0 26,-5 37,-16 10,-11 19,-31 25,-60 8,-36 12,-98 12,-186 0,-87 -4,-147 -11,-179 -7,-33 -16,-55 -27,-66 -10,-11 -22,-17 -36,-17z"/>
  <circle class="fil2 str1" cx="3348" cy="19970" r="600"/>
  <path class="fil1" d="M3098 20139l142 -15c4,32 16,58 36,77 20,18 43,28 69,28 30,0 55,-12 76,-37 20,-24 31,-61 31,-110 0,-46 -10,-80 -31,-103 -20,-23 -47,-34 -80,-34 -41,0 -78,18 -110,54l-115 -17 72 -386 377 0 0 133 -269 0 -22 126c31,-15 64,-23 97,-23 63,0 117,23 161,69 44,46 66,106 66,179 0,61 -18,116 -53,164 -49,66 -116,99 -201,99 -69,0 -125,-19 -168,-55 -44,-37 -69,-87 -78,-149z"/>
  <circle class="fil2 str1" cx="17548" cy="19976" r="600"/>
  <path class="fil1" d="M17462 20350l-125 0 0 -538c-46,49 -100,85 -163,108l0 -129c33,-12 69,-35 107,-70 39,-33 65,-73 79,-118l102 0 0 747z"/>
  <path id="1" class="fil1" d="M17921 20350l-125 0 0 -538c-46,49 -100,85 -163,108l0 -129c33,-12 69,-35 107,-70 39,-33 65,-73 79,-118l102 0 0 747z"/>
  <rect class="fil2 str0" x="4309" y="15412" width="12153" height="9115"/>
  <rect class="fil2 str0" x="4450" y="2218" width="12153" height="9115"/>
 </g>
</svg>
