<?xml version="1.0" encoding="UTF-8"?>
<!DOCTYPE svg PUBLIC "-//W3C//DTD SVG 1.1//EN" "http://www.w3.org/Graphics/SVG/1.1/DTD/svg11.dtd">
<!-- Creator: CorelDRAW Home & Student X8 -->
<svg xmlns="http://www.w3.org/2000/svg" xml:space="preserve" width="160.648mm" height="120.548mm" version="1.1" style="shape-rendering:geometricPrecision; text-rendering:geometricPrecision; image-rendering:optimizeQuality; fill-rule:evenodd; clip-rule:evenodd"
viewBox="0 0 16119 12096"
 xmlns:xlink="http://www.w3.org/1999/xlink">
 <defs>
  <style type="text/css">
   <![CDATA[
    .str0 {stroke:#2B2A29;stroke-width:25.0845}
    .str1 {stroke:#2B2A29;stroke-width:20.0676}
    .fil2 {fill:none}
    .fil0 {fill:#FEFEFE}
    .fil1 {fill:#2B2A29;fill-rule:nonzero}
   ]]>
  </style>
 </defs>
 <g id="Layer_x0020_1">
  <metadata id="CorelCorpID_0Corel-Layer"/>
  <rect class="fil0 str0" x="13" y="13" width="16094" height="12070"/>
  <path class="fil1" d="M5631 6697l-161 0 0 -1029c-39,38 -90,75 -153,112 -63,37 -120,64 -170,83l0 -156c90,-42 169,-94 236,-154 68,-61 116,-119 144,-176l104 0 0 1320z"/>
  <path id="1" class="fil1" d="M6046 6048c0,-155 16,-280 48,-375 32,-95 80,-168 143,-220 62,-51 141,-76 237,-76 70,0 132,14 186,43 53,28 97,69 131,122 34,54 61,119 81,196 20,76 29,180 29,310 0,154 -15,279 -47,374 -31,95 -79,168 -142,219 -63,52 -142,78 -238,78 -126,0 -226,-45 -298,-136 -87,-110 -130,-288 -130,-535zm165 1c0,216 26,360 76,431 50,71 113,106 187,106 74,0 136,-35 187,-107 50,-71 75,-215 75,-430 0,-217 -25,-360 -75,-431 -50,-72 -113,-107 -189,-107 -74,0 -133,31 -178,94 -55,80 -83,228 -83,444z"/>
  <polygon id="2" class="fil1" points="7634,6697 7634,5382 7808,5382 7808,6542 8454,6542 8454,6697 "/>
  <polygon id="3" class="fil1" points="8665,6697 8665,5382 9614,5382 9614,5537 8840,5537 8840,5940 9565,5940 9565,6095 8840,6095 8840,6542 9645,6542 9645,6697 "/>
  <path id="4" class="fil1" d="M9886 6697l0 -1315 453 0c102,0 180,7 234,19 75,18 139,49 192,94 70,59 121,134 156,225 34,91 51,195 51,312 0,100 -11,189 -35,266 -23,77 -53,141 -89,191 -37,51 -77,90 -120,119 -43,29 -95,51 -157,66 -61,15 -131,23 -211,23l-474 0zm174 -155l280 0c87,0 155,-8 204,-24 49,-16 89,-39 118,-68 41,-41 73,-97 96,-167 23,-69 34,-154 34,-253 0,-138 -22,-244 -67,-318 -45,-74 -100,-123 -164,-148 -47,-18 -122,-27 -225,-27l-276 0 0 1005z"/>
  <circle class="fil2 str1" cx="1018" cy="11352" r="602"/>
  <circle class="fil2 str1" cx="4036" cy="11352" r="602"/>
  <circle class="fil2 str1" cx="8060" cy="11352" r="602"/>
  <circle class="fil2 str1" cx="12083" cy="11352" r="602"/>
  <circle class="fil2 str1" cx="15094" cy="11352" r="602"/>
  <circle class="fil2 str1" cx="1018" cy="744" r="602"/>
  <circle class="fil2 str1" cx="4036" cy="744" r="602"/>
  <circle class="fil2 str1" cx="8060" cy="744" r="602"/>
  <circle class="fil2 str1" cx="12083" cy="744" r="602"/>
  <circle class="fil2 str1" cx="15094" cy="744" r="602"/>
  <path class="fil1" d="M12246 11726l-142 0 0 -539c-52,49 -114,85 -184,109l0 -130c37,-13 77,-36 121,-70 44,-34 73,-73 90,-119l115 0 0 749z"/>
  <path class="fil1" d="M14930 11720l-126 0 0 -540c-46,49 -100,85 -162,109l0 -130c33,-12 68,-35 107,-70 38,-34 65,-73 79,-119l102 0 0 750z"/>
  <path id="1" class="fil1" d="M15333 10970c64,0 113,26 149,78 43,61 65,162 65,304 0,141 -22,243 -65,305 -36,51 -85,76 -149,76 -64,0 -116,-28 -155,-84 -39,-55 -59,-155 -59,-298 0,-141 22,-242 65,-304 35,-51 85,-77 149,-77zm0 119c-15,0 -29,6 -40,17 -12,11 -21,30 -28,59 -8,37 -13,99 -13,187 0,88 4,148 12,181 7,32 17,54 29,65 11,11 25,17 40,17 15,0 28,-6 40,-17 12,-11 21,-31 27,-59 9,-37 13,-99 13,-187 0,-88 -4,-148 -11,-181 -8,-32 -18,-54 -29,-65 -12,-11 -25,-17 -40,-17z"/>
  <path class="fil1" d="M8310 11594l0 132 -501 0c6,-50 22,-97 49,-142 27,-45 81,-105 160,-179 65,-60 104,-101 119,-122 19,-30 29,-59 29,-88 0,-32 -8,-56 -25,-73 -17,-18 -41,-26 -71,-26 -30,0 -53,9 -71,27 -18,18 -28,48 -31,89l-142 -14c8,-79 35,-135 80,-169 44,-35 100,-52 167,-52 74,0 132,20 174,60 42,40 63,89 63,148 0,34 -6,66 -18,96 -12,31 -31,62 -57,96 -18,22 -49,54 -94,95 -45,41 -74,69 -86,83 -12,13 -22,26 -29,39l284 0z"/>
  <path class="fil1" d="M3789 11522l138 -17c5,36 16,63 36,81 19,19 42,29 69,29 30,0 54,-12 74,-34 20,-22 30,-53 30,-91 0,-36 -9,-64 -28,-85 -20,-21 -43,-32 -71,-32 -18,0 -40,4 -65,11l16 -116c38,1 68,-7 88,-25 20,-18 30,-42 30,-71 0,-25 -7,-45 -22,-61 -15,-14 -35,-22 -60,-22 -24,0 -45,9 -62,26 -17,17 -28,41 -32,74l-131 -22c10,-46 23,-82 42,-109 18,-27 44,-49 77,-64 33,-16 70,-24 111,-24 70,0 126,23 168,68 35,37 53,78 53,124 0,66 -36,119 -107,158 42,9 76,29 102,61 25,32 38,71 38,116 0,65 -24,121 -71,167 -48,46 -107,69 -179,69 -67,0 -123,-19 -167,-58 -44,-39 -70,-90 -77,-153z"/>
  <path class="fil1" d="M1055 11726l0 -150 -304 0 0 -124 322 -474 120 0 0 473 93 0 0 125 -93 0 0 150 -138 0zm0 -275l0 -254 -170 254 170 0z"/>
  <path class="fil1" d="M768 913l142 -14c4,32 16,58 36,77 20,18 44,28 70,28 30,0 55,-12 75,-37 21,-24 32,-61 32,-110 0,-46 -11,-81 -31,-104 -21,-23 -48,-34 -80,-34 -42,0 -78,18 -111,54l-116 -17 73 -387 378 0 0 133 -269 0 -23 127c32,-16 64,-24 98,-24 63,0 117,23 161,70 44,46 66,106 66,180 0,61 -18,116 -53,164 -49,66 -116,99 -202,99 -69,0 -125,-18 -168,-55 -44,-37 -70,-87 -78,-150z"/>
  <path class="fil1" d="M4271 549l-138 15c-4,-28 -12,-49 -27,-63 -14,-13 -32,-20 -55,-20 -30,0 -56,14 -76,41 -21,27 -34,83 -40,169 36,-42 80,-63 133,-63 59,0 111,22 153,68 43,45 64,104 64,176 0,76 -23,138 -67,184 -45,46 -103,69 -173,69 -75,0 -137,-29 -185,-88 -48,-58 -73,-154 -73,-288 0,-137 26,-235 76,-296 51,-60 116,-91 197,-91 56,0 103,16 140,48 37,32 61,78 71,139zm-323 312c0,46 10,82 32,107 21,26 45,38 73,38 26,0 48,-10 66,-31 17,-20 26,-54 26,-102 0,-48 -9,-84 -28,-106 -19,-23 -43,-34 -71,-34 -28,0 -51,11 -70,32 -19,22 -28,54 -28,96z"/>
  <path class="fil1" d="M7815 508l0 -132 489 0 0 104c-40,40 -81,97 -123,171 -42,74 -74,153 -95,236 -22,84 -33,159 -33,225l-137 0c2,-104 24,-209 64,-316 40,-107 93,-203 160,-288l-325 0z"/>
  <path class="fil1" d="M11963 709c-37,-16 -64,-37 -81,-65 -16,-27 -25,-57 -25,-89 0,-56 20,-102 58,-138 39,-36 94,-55 165,-55 71,0 126,19 165,55 39,36 59,82 59,138 0,34 -9,65 -27,92 -18,27 -44,47 -76,62 41,16 73,41 94,73 22,32 33,68 33,110 0,69 -22,125 -66,168 -44,44 -102,65 -175,65 -68,0 -124,-18 -169,-54 -53,-41 -80,-99 -80,-173 0,-40 11,-77 30,-111 20,-34 52,-60 95,-78zm29 -144c0,29 8,51 24,67 17,16 38,24 64,24 27,0 49,-8 65,-24 16,-17 24,-39 24,-67 0,-27 -8,-49 -24,-65 -16,-16 -37,-24 -63,-24 -27,0 -49,8 -65,24 -16,17 -25,38 -25,65zm-13 320c0,39 10,70 30,92 20,23 45,34 75,34 30,0 54,-11 73,-32 19,-22 29,-53 29,-93 0,-35 -10,-63 -29,-85 -20,-21 -45,-32 -75,-32 -35,0 -60,12 -78,37 -17,24 -25,50 -25,79z"/>
  <path class="fil1" d="M14861 938l138 -15c4,28 13,49 27,63 14,14 32,20 55,20 30,0 55,-13 75,-40 20,-28 33,-84 39,-170 -36,42 -80,63 -134,63 -59,0 -109,-23 -152,-68 -42,-45 -64,-104 -64,-177 0,-75 23,-136 68,-182 45,-47 102,-70 171,-70 76,0 138,30 186,88 48,59 73,155 73,289 0,137 -25,235 -76,295 -50,61 -116,91 -196,91 -58,0 -105,-16 -141,-47 -36,-31 -59,-77 -69,-140zm322 -312c0,-46 -11,-82 -32,-107 -21,-25 -46,-38 -73,-38 -27,0 -49,10 -66,31 -17,21 -26,55 -26,102 0,48 9,83 28,106 19,22 43,34 71,34 28,0 51,-11 69,-33 19,-21 29,-53 29,-95z"/>
  <rect class="fil2 str0" x="1962" y="1475" width="12194" height="9146"/>
 </g>
</svg>
