<?xml version="1.0" encoding="UTF-8"?>
<!DOCTYPE svg PUBLIC "-//W3C//DTD SVG 1.1//EN" "http://www.w3.org/Graphics/SVG/1.1/DTD/svg11.dtd">
<!-- Creator: CorelDRAW Home & Student X8 -->
<svg xmlns="http://www.w3.org/2000/svg" xml:space="preserve" width="160.648mm" height="120.548mm" version="1.1" style="shape-rendering:geometricPrecision; text-rendering:geometricPrecision; image-rendering:optimizeQuality; fill-rule:evenodd; clip-rule:evenodd"
viewBox="0 0 15840 11886"
 xmlns:xlink="http://www.w3.org/1999/xlink">
 <defs>
  <style type="text/css">
   <![CDATA[
    .str0 {stroke:#2B2A29;stroke-width:24.6499}
    .str1 {stroke:#2B2A29;stroke-width:19.72}
    .fil2 {fill:none}
    .fil0 {fill:#FEFEFE}
    .fil1 {fill:#2B2A29;fill-rule:nonzero}
   ]]>
  </style>
 </defs>
 <g id="Layer_x0020_1">
  <metadata id="CorelCorpID_0Corel-Layer"/>
  <rect class="fil0 str0" x="12" y="12" width="15815" height="11861"/>
  <path class="fil1" d="M5534 6581l-159 0 0 -1011c-38,37 -88,73 -150,109 -62,37 -118,64 -167,82l0 -153c88,-42 166,-92 232,-152 67,-59 114,-116 141,-172l103 0 0 1297z"/>
  <path id="1" class="fil1" d="M6773 6429l0 152 -855 0c-1,-39 5,-75 19,-111 22,-58 57,-115 105,-171 49,-57 118,-122 208,-195 139,-115 234,-206 284,-274 50,-67 75,-131 75,-191 0,-63 -23,-116 -68,-159 -45,-43 -104,-64 -176,-64 -77,0 -138,22 -184,68 -46,45 -69,109 -70,189l-162 -16c11,-121 53,-214 126,-278 73,-63 170,-95 293,-95 124,0 222,34 295,103 72,69 108,154 108,256 0,51 -10,102 -32,152 -21,50 -56,103 -105,158 -49,55 -131,131 -244,227 -96,80 -157,135 -184,163 -27,29 -49,57 -67,86l634 0z"/>
  <polygon id="2" class="fil1" points="7502,6581 7502,5289 7673,5289 7673,6429 8308,6429 8308,6581 "/>
  <polygon id="3" class="fil1" points="8515,6581 8515,5289 9448,5289 9448,5441 8687,5441 8687,5838 9399,5838 9399,5989 8687,5989 8687,6429 9478,6429 9478,6581 "/>
  <path id="4" class="fil1" d="M9715 6581l0 -1292 444 0c101,0 178,6 230,19 74,17 137,48 190,92 68,58 119,131 152,221 34,89 51,192 51,307 0,98 -11,185 -34,261 -23,75 -52,138 -88,188 -36,49 -75,88 -118,117 -42,28 -94,50 -154,65 -60,14 -129,22 -207,22l-466 0zm171 -152l275 0c85,0 152,-8 200,-24 49,-16 87,-38 116,-67 40,-40 72,-95 95,-164 22,-68 34,-151 34,-249 0,-135 -23,-239 -67,-312 -44,-72 -98,-121 -161,-146 -46,-18 -120,-26 -221,-26l-271 0 0 988z"/>
  <circle class="fil2 str1" cx="1001" cy="11155" r="592"/>
  <circle class="fil2 str1" cx="3966" cy="11155" r="592"/>
  <circle class="fil2 str1" cx="7920" cy="11155" r="592"/>
  <circle class="fil2 str1" cx="11874" cy="11155" r="592"/>
  <circle class="fil2 str1" cx="14833" cy="11155" r="592"/>
  <circle class="fil2 str1" cx="1001" cy="731" r="592"/>
  <circle class="fil2 str1" cx="3966" cy="731" r="592"/>
  <circle class="fil2 str1" cx="7920" cy="731" r="592"/>
  <circle class="fil2 str1" cx="11874" cy="731" r="592"/>
  <circle class="fil2 str1" cx="14833" cy="731" r="592"/>
  <path class="fil1" d="M12034 11523l-140 0 0 -530c-51,48 -111,84 -181,107l0 -128c37,-12 77,-34 119,-68 43,-33 73,-72 89,-117l113 0 0 736z"/>
  <path class="fil1" d="M14672 11517l-124 0 0 -530c-45,48 -99,83 -160,106l0 -127c32,-12 67,-35 105,-69 38,-33 64,-72 78,-117l101 0 0 737z"/>
  <path id="1" class="fil1" d="M15276 11387l0 130 -434 0c4,-50 19,-96 42,-141 24,-44 70,-102 139,-175 56,-59 90,-99 103,-120 17,-29 26,-58 26,-87 0,-31 -8,-55 -23,-72 -14,-17 -35,-25 -61,-25 -26,0 -46,9 -62,27 -15,17 -24,46 -26,88l-124 -14c8,-78 31,-133 69,-167 39,-34 88,-51 146,-51 64,0 114,20 151,59 36,39 54,88 54,146 0,33 -5,64 -15,94 -11,30 -27,61 -50,94 -15,22 -42,53 -81,94 -40,40 -64,67 -75,81 -10,13 -19,26 -25,39l246 0z"/>
  <path class="fil1" d="M8166 11393l0 130 -492 0c5,-49 21,-96 48,-140 26,-44 79,-103 158,-176 63,-59 101,-99 116,-120 19,-29 29,-57 29,-86 0,-31 -9,-55 -26,-72 -16,-17 -39,-25 -69,-25 -29,0 -52,9 -70,26 -17,18 -27,47 -30,88l-140 -14c9,-77 35,-133 79,-166 44,-34 99,-51 165,-51 72,0 129,20 170,59 41,39 62,87 62,145 0,33 -6,65 -18,95 -12,30 -30,61 -56,94 -17,21 -48,53 -92,93 -45,41 -73,68 -85,81 -11,14 -21,27 -28,39l279 0z"/>
  <path class="fil1" d="M3723 11323l136 -17c5,35 16,61 35,80 19,18 42,27 69,27 28,0 53,-11 72,-33 20,-22 30,-51 30,-89 0,-35 -10,-63 -29,-84 -18,-20 -41,-31 -69,-31 -18,0 -39,4 -64,11l16 -114c38,1 66,-7 86,-25 20,-17 30,-41 30,-70 0,-25 -7,-44 -22,-59 -15,-15 -34,-22 -58,-22 -24,0 -45,8 -62,25 -17,17 -27,41 -31,73l-129 -22c10,-44 23,-80 41,-107 18,-26 44,-47 76,-63 32,-15 69,-23 109,-23 69,0 124,22 166,67 34,36 51,77 51,122 0,65 -35,116 -105,154 42,10 75,30 100,61 25,31 38,69 38,113 0,65 -24,120 -70,165 -47,45 -106,68 -175,68 -67,0 -121,-19 -165,-58 -44,-38 -69,-88 -76,-149z"/>
  <path class="fil1" d="M1037 11523l0 -147 -299 0 0 -123 317 -465 118 0 0 465 91 0 0 123 -91 0 0 147 -136 0zm0 -270l0 -250 -168 250 168 0z"/>
  <path class="fil1" d="M1228 533l-136 15c-3,-28 -12,-49 -26,-62 -14,-13 -32,-20 -54,-20 -30,0 -55,13 -76,40 -20,26 -33,82 -38,166 35,-41 78,-62 130,-62 59,0 109,23 151,67 41,45 62,103 62,173 0,75 -22,136 -66,181 -44,45 -100,68 -169,68 -74,0 -135,-29 -182,-86 -48,-58 -72,-152 -72,-284 0,-134 25,-231 75,-290 49,-60 114,-90 193,-90 56,0 102,16 138,47 37,32 60,77 70,137zm-318 306c0,46 10,81 31,106 21,25 45,37 72,37 26,0 48,-10 65,-30 17,-21 26,-54 26,-100 0,-48 -9,-83 -28,-105 -19,-22 -42,-34 -70,-34 -27,0 -49,11 -68,32 -19,21 -28,53 -28,94z"/>
  <path class="fil1" d="M3722 499l0 -130 480 0 0 103c-39,39 -80,95 -121,167 -41,73 -72,151 -93,233 -22,82 -32,156 -32,220l-135 0c2,-101 23,-205 62,-310 40,-105 92,-200 158,-283l-319 0z"/>
  <path class="fil1" d="M7801 696c-37,-15 -63,-36 -79,-63 -17,-27 -25,-56 -25,-88 0,-55 19,-100 57,-135 38,-36 92,-54 162,-54 70,0 124,18 162,54 38,35 58,80 58,135 0,34 -9,64 -27,91 -17,26 -42,46 -74,60 40,17 71,41 92,72 22,32 32,68 32,109 0,68 -21,123 -64,165 -43,42 -101,64 -172,64 -67,0 -122,-18 -166,-53 -52,-41 -78,-98 -78,-170 0,-40 9,-76 29,-110 20,-33 51,-59 93,-77zm29 -141c0,28 8,50 23,66 16,16 37,23 63,23 27,0 48,-8 64,-23 16,-16 24,-38 24,-66 0,-27 -8,-48 -24,-64 -16,-15 -36,-23 -62,-23 -27,0 -48,8 -64,24 -16,16 -24,37 -24,63zm-13 314c0,39 10,70 29,91 20,22 45,33 74,33 29,0 53,-10 72,-31 19,-21 28,-52 28,-91 0,-35 -9,-63 -29,-84 -19,-21 -43,-31 -73,-31 -34,0 -59,12 -76,36 -17,24 -25,49 -25,77z"/>
  <path class="fil1" d="M11640 922l136 -15c3,28 11,49 25,62 14,13 32,20 55,20 29,0 53,-13 73,-40 21,-27 33,-83 39,-167 -35,41 -79,62 -132,62 -58,0 -107,-22 -149,-67 -42,-44 -63,-102 -63,-173 0,-75 22,-134 66,-180 44,-45 101,-68 169,-68 74,0 135,29 183,86 47,58 71,153 71,284 0,134 -25,231 -74,290 -50,60 -114,90 -193,90 -58,0 -104,-16 -139,-46 -35,-31 -58,-77 -67,-138zm315 -307c0,-45 -10,-80 -31,-105 -20,-25 -44,-37 -72,-37 -26,0 -47,10 -64,30 -17,21 -26,54 -26,101 0,47 10,81 28,103 19,22 42,34 70,34 27,0 49,-11 68,-32 18,-22 27,-53 27,-94z"/>
  <path class="fil1" d="M14684 1092l-113 0 0 -530c-42,48 -91,84 -148,107l0 -128c30,-12 62,-34 97,-68 35,-33 59,-72 72,-117l92 0 0 736z"/>
  <path id="1" class="fil1" d="M15049 356c57,0 102,25 135,76 39,60 58,160 58,299 0,139 -20,239 -59,299 -32,51 -77,76 -134,76 -58,0 -105,-28 -141,-83 -35,-55 -53,-153 -53,-293 0,-139 20,-238 59,-299 32,-50 77,-75 135,-75zm0 117c-14,0 -26,5 -37,16 -10,11 -19,30 -25,58 -7,37 -11,98 -11,184 0,86 3,145 10,178 7,32 16,53 26,64 11,11 23,16 37,16 13,0 25,-5 36,-16 11,-11 19,-31 25,-59 7,-36 11,-97 11,-183 0,-86 -3,-145 -10,-177 -7,-33 -16,-54 -26,-65 -11,-11 -23,-16 -36,-16z"/>
  <circle class="fil2 str1" cx="981" cy="5943" r="592"/>
  <path class="fil1" d="M734 6110l140 -15c4,32 16,57 36,76 19,18 42,28 68,28 29,0 54,-12 74,-36 21,-24 31,-60 31,-109 0,-45 -10,-79 -31,-102 -20,-22 -46,-34 -78,-34 -41,0 -77,18 -109,54l-114 -17 72 -380 371 0 0 131 -264 0 -23 124c32,-15 64,-23 96,-23 63,0 116,23 159,68 43,46 65,104 65,177 0,61 -18,114 -53,162 -47,65 -113,97 -198,97 -68,0 -123,-18 -165,-54 -43,-37 -69,-86 -77,-147z"/>
  <circle class="fil2 str1" cx="14981" cy="5950" r="592"/>
  <path class="fil1" d="M14897 6318l-124 0 0 -530c-45,48 -98,83 -160,106l0 -127c33,-12 68,-35 106,-69 37,-33 63,-72 78,-116l100 0 0 736z"/>
  <path id="1" class="fil1" d="M15350 6318l-124 0 0 -530c-45,48 -99,83 -160,106l0 -127c32,-12 67,-35 105,-69 38,-33 64,-72 78,-116l101 0 0 736z"/>
  <rect class="fil2 str0" x="1928" y="1449" width="11983" height="8987"/>
 </g>
</svg>
